<svg width="400" height="400" viewBox="0 0 400 400" fill="none" xmlns="http://www.w3.org/2000/svg">
    <path d="M119.57 133.387C120.156 131.629 120.986 130.604 122.061 130.311C123.232 130.018 124.551 129.871 126.016 129.871C128.262 129.871 130.752 131.385 133.486 134.412C136.318 137.342 139.199 141.297 142.129 146.277C145.059 151.258 147.988 156.971 150.918 163.416C153.945 169.861 156.826 176.551 159.561 183.484C162.393 190.32 165.029 197.156 167.471 203.992C169.912 210.828 172.012 217.127 173.77 222.889C175.625 228.553 177.041 233.484 178.018 237.684C178.994 241.883 179.482 244.764 179.482 246.326C179.482 247.889 179.092 249.402 178.311 250.867C177.627 252.234 176.357 252.918 174.502 252.918C173.33 252.918 172.305 252.576 171.426 251.893C170.645 251.111 169.961 250.184 169.375 249.109C168.789 248.035 168.252 246.961 167.764 245.887C167.275 244.812 166.836 243.885 166.445 243.104C166.055 242.029 165.225 239.979 163.955 236.951C162.783 233.924 161.514 230.75 160.146 227.43C158.877 224.109 157.656 220.984 156.484 218.055C155.312 215.125 154.482 213.025 153.994 211.756C147.158 210.584 140.273 209.51 133.34 208.533C126.504 207.459 119.277 206.434 111.66 205.457H110.049C106.533 220.594 103.408 232.557 100.674 241.346C98.0371 250.135 95.791 256.385 93.9355 260.096C92.1777 263.807 90.7617 265.32 89.6875 264.637C88.7109 264.051 88.0273 261.854 87.6367 258.045C87.3438 254.139 87.3926 248.963 87.7832 242.518C88.2715 236.072 89.1016 228.992 90.2734 221.277C91.543 213.465 93.0566 205.311 94.8145 196.814C96.5723 188.318 98.6719 180.115 101.113 172.205C103.652 164.295 106.436 156.971 109.463 150.232C112.588 143.396 115.957 137.781 119.57 133.387ZM116.055 184.949C116.055 188.562 117.227 191.248 119.57 193.006C121.914 194.666 124.746 195.74 128.066 196.229C131.387 196.717 134.854 196.912 138.467 196.814C142.178 196.717 145.352 196.668 147.988 196.668C147.988 192.762 147.354 188.562 146.084 184.07C144.814 179.48 143.203 174.939 141.25 170.447C139.297 165.955 137.197 161.609 134.951 157.41C132.803 153.113 130.801 149.256 128.945 145.838C127.871 146.912 126.699 148.914 125.43 151.844C124.258 154.676 123.037 157.898 121.768 161.512C120.596 165.027 119.521 168.494 118.545 171.912C117.568 175.33 116.836 178.113 116.348 180.262C116.348 180.555 116.299 181.336 116.201 182.605C116.104 183.777 116.055 184.559 116.055 184.949ZM188.418 199.305C188.418 198.133 188.418 196.229 188.418 193.592C188.516 190.857 188.564 188.025 188.564 185.096C188.564 182.068 188.564 179.236 188.564 176.6C188.662 173.963 188.711 172.107 188.711 171.033C188.809 170.35 189.053 169.324 189.443 167.957C189.834 166.492 190.273 165.076 190.762 163.709C191.348 162.342 192.08 161.17 192.959 160.193C193.936 159.119 195.107 158.582 196.475 158.582C199.697 158.582 202.725 159.461 205.557 161.219C208.389 162.977 211.123 165.32 213.76 168.25C216.396 171.082 218.887 174.256 221.23 177.771C223.672 181.287 226.064 184.803 228.408 188.318C230.752 191.736 233.047 195.008 235.293 198.133C237.539 201.16 239.785 203.602 242.031 205.457C244.473 204.383 246.377 202.43 247.744 199.598C249.111 196.668 250.234 193.348 251.113 189.637C251.992 185.828 252.773 181.922 253.457 177.918C254.238 173.816 255.264 170.057 256.533 166.639C257.803 163.221 259.463 160.438 261.514 158.289C263.662 156.043 266.592 154.92 270.303 154.92C274.697 154.92 278.652 156.629 282.168 160.047C285.781 163.465 289.004 167.811 291.836 173.084C294.668 178.357 297.061 184.217 299.014 190.662C301.064 197.107 302.773 203.309 304.141 209.266C305.508 215.223 306.533 220.594 307.217 225.379C307.9 230.164 308.242 233.582 308.242 235.633C308.242 236.512 308.193 237.488 308.096 238.562C307.998 239.539 307.754 240.467 307.363 241.346C306.973 242.127 306.338 242.762 305.459 243.25C304.58 243.641 303.311 243.592 301.65 243.104C301.162 243.006 300.576 242.762 299.893 242.371C299.307 241.883 298.672 241.297 297.988 240.613C297.305 239.93 296.719 239.295 296.23 238.709C295.742 238.025 295.498 237.439 295.498 236.951C294.619 232.166 293.643 226.844 292.568 220.984C291.494 215.125 290.127 209.217 288.467 203.26C286.904 197.205 284.902 191.346 282.461 185.682C280.02 180.018 276.992 175.135 273.379 171.033C270.547 172.596 268.301 174.988 266.641 178.211C265.078 181.336 263.76 184.803 262.686 188.611C261.611 192.322 260.635 196.131 259.756 200.037C258.877 203.943 257.705 207.508 256.24 210.73C254.775 213.855 252.92 216.443 250.674 218.494C248.428 220.545 245.4 221.57 241.592 221.57C238.955 221.57 236.367 220.74 233.828 219.08C231.387 217.322 228.994 215.076 226.65 212.342C224.307 209.51 222.012 206.434 219.766 203.113C217.617 199.695 215.469 196.375 213.32 193.152C211.27 189.832 209.219 186.756 207.168 183.924C205.215 181.092 203.213 178.846 201.162 177.186C200.381 180.213 199.746 182.898 199.258 185.242C198.867 187.488 198.525 189.686 198.232 191.834C198.037 193.982 197.891 196.18 197.793 198.426C197.793 200.672 197.793 203.162 197.793 205.896C197.793 209.998 198.135 214.1 198.818 218.201C199.502 222.205 200.234 226.209 201.016 230.213C201.797 234.217 202.529 238.27 203.213 242.371C203.994 246.375 204.385 250.428 204.385 254.529V255.701C204.189 255.994 203.799 256.482 203.213 257.166C202.627 257.752 201.992 258.387 201.309 259.07C200.723 259.754 200.088 260.389 199.404 260.975C198.721 261.463 198.232 261.805 197.939 262C197.842 262.098 197.646 262.146 197.354 262.146C197.061 262.244 196.768 262.293 196.475 262.293C196.279 262.293 196.035 262.244 195.742 262.146C195.449 262.049 195.205 262 195.01 262C194.326 256.336 193.594 250.965 192.812 245.887C192.031 240.809 191.299 235.779 190.615 230.799C190.029 225.818 189.492 220.789 189.004 215.711C188.613 210.633 188.418 205.164 188.418 199.305Z" fill="black"/>
    <circle cx="200" cy="200" r="149.5" stroke="black"/>
</svg>